<mxfile host="app.diagrams.net" modified="2023-01-22T15:30:23.211Z" agent="5.0 (Windows NT 10.0; Win64; x64) AppleWebKit/537.36 (KHTML, like Gecko) Chrome/97.0.4692.71 Safari/537.36" etag="DLy2zxPQfDhE9iRdPIcr" version="18.2.1" type="github">
  <diagram id="KOqec2Zq2-epZErjFMoj" name="Page-1">
    <mxGraphModel dx="2249" dy="794" grid="1" gridSize="10" guides="1" tooltips="1" connect="1" arrows="1" fold="1" page="1" pageScale="1" pageWidth="827" pageHeight="1169" math="0" shadow="0">
      <root>
        <mxCell id="0" />
        <mxCell id="1" parent="0" />
        <mxCell id="N_PFa5pl4ToR3S_AZAu7-3" style="edgeStyle=orthogonalEdgeStyle;rounded=0;orthogonalLoop=1;jettySize=auto;html=1;fontSize=18;" edge="1" parent="1" source="N_PFa5pl4ToR3S_AZAu7-1" target="N_PFa5pl4ToR3S_AZAu7-2">
          <mxGeometry relative="1" as="geometry" />
        </mxCell>
        <mxCell id="N_PFa5pl4ToR3S_AZAu7-1" value="&lt;font style=&quot;font-size: 18px;&quot;&gt;initializeBean&lt;/font&gt;" style="strokeWidth=2;html=1;shape=mxgraph.flowchart.start_1;whiteSpace=wrap;" vertex="1" parent="1">
          <mxGeometry x="349" y="190" width="130" height="60" as="geometry" />
        </mxCell>
        <mxCell id="N_PFa5pl4ToR3S_AZAu7-5" value="" style="edgeStyle=orthogonalEdgeStyle;orthogonalLoop=1;jettySize=auto;html=1;fontSize=18;curved=1;dashed=1;fillColor=#e51400;strokeColor=#B20000;" edge="1" parent="1" source="N_PFa5pl4ToR3S_AZAu7-2" target="N_PFa5pl4ToR3S_AZAu7-4">
          <mxGeometry relative="1" as="geometry" />
        </mxCell>
        <mxCell id="N_PFa5pl4ToR3S_AZAu7-7" style="edgeStyle=orthogonalEdgeStyle;rounded=0;orthogonalLoop=1;jettySize=auto;html=1;fontSize=18;" edge="1" parent="1" source="N_PFa5pl4ToR3S_AZAu7-2" target="N_PFa5pl4ToR3S_AZAu7-6">
          <mxGeometry relative="1" as="geometry" />
        </mxCell>
        <mxCell id="N_PFa5pl4ToR3S_AZAu7-2" value="invokeAwareMethods" style="rounded=1;whiteSpace=wrap;html=1;absoluteArcSize=1;arcSize=14;strokeWidth=2;fontSize=18;" vertex="1" parent="1">
          <mxGeometry x="319" y="290" width="190" height="50" as="geometry" />
        </mxCell>
        <mxCell id="N_PFa5pl4ToR3S_AZAu7-4" value="执行 Aware 接口的方法调用，这里处理的接口有&amp;nbsp;BeanNameAware &lt;br&gt;BeanClassLoaderAware&lt;br&gt;BeanFactoryAware" style="shape=document;whiteSpace=wrap;html=1;boundedLbl=1;fontSize=18;rounded=1;arcSize=14;strokeWidth=2;" vertex="1" parent="1">
          <mxGeometry x="-157.75" y="200" width="220" height="140" as="geometry" />
        </mxCell>
        <mxCell id="N_PFa5pl4ToR3S_AZAu7-9" value="" style="edgeStyle=orthogonalEdgeStyle;orthogonalLoop=1;jettySize=auto;html=1;fontSize=18;curved=1;dashed=1;fillColor=#e51400;strokeColor=#B20000;" edge="1" parent="1" source="N_PFa5pl4ToR3S_AZAu7-6" target="N_PFa5pl4ToR3S_AZAu7-8">
          <mxGeometry relative="1" as="geometry" />
        </mxCell>
        <mxCell id="N_PFa5pl4ToR3S_AZAu7-11" style="edgeStyle=orthogonalEdgeStyle;rounded=0;orthogonalLoop=1;jettySize=auto;html=1;fontSize=18;" edge="1" parent="1" source="N_PFa5pl4ToR3S_AZAu7-6" target="N_PFa5pl4ToR3S_AZAu7-10">
          <mxGeometry relative="1" as="geometry" />
        </mxCell>
        <mxCell id="N_PFa5pl4ToR3S_AZAu7-6" value="applyBeanPostProcessorsBeforeInitialization" style="rounded=1;whiteSpace=wrap;html=1;absoluteArcSize=1;arcSize=14;strokeWidth=2;fontSize=18;" vertex="1" parent="1">
          <mxGeometry x="228" y="390" width="371" height="50" as="geometry" />
        </mxCell>
        <mxCell id="N_PFa5pl4ToR3S_AZAu7-8" value="执行&amp;nbsp;BeanPostProcessor&lt;br&gt;postProcessBeforeInitialization" style="shape=document;whiteSpace=wrap;html=1;boundedLbl=1;fontSize=18;rounded=1;arcSize=14;strokeWidth=2;" vertex="1" parent="1">
          <mxGeometry x="-205.25" y="400" width="267.5" height="100" as="geometry" />
        </mxCell>
        <mxCell id="N_PFa5pl4ToR3S_AZAu7-13" value="" style="edgeStyle=orthogonalEdgeStyle;orthogonalLoop=1;jettySize=auto;html=1;fontSize=18;curved=1;dashed=1;fillColor=#e51400;strokeColor=#B20000;" edge="1" parent="1" source="N_PFa5pl4ToR3S_AZAu7-10" target="N_PFa5pl4ToR3S_AZAu7-12">
          <mxGeometry relative="1" as="geometry" />
        </mxCell>
        <mxCell id="N_PFa5pl4ToR3S_AZAu7-15" style="edgeStyle=orthogonalEdgeStyle;rounded=0;orthogonalLoop=1;jettySize=auto;html=1;entryX=0.5;entryY=0;entryDx=0;entryDy=0;fontSize=18;" edge="1" parent="1" source="N_PFa5pl4ToR3S_AZAu7-10" target="N_PFa5pl4ToR3S_AZAu7-14">
          <mxGeometry relative="1" as="geometry" />
        </mxCell>
        <mxCell id="N_PFa5pl4ToR3S_AZAu7-10" value="invokeInitMethods" style="rounded=1;whiteSpace=wrap;html=1;absoluteArcSize=1;arcSize=14;strokeWidth=2;fontSize=18;" vertex="1" parent="1">
          <mxGeometry x="308" y="490" width="212" height="50" as="geometry" />
        </mxCell>
        <mxCell id="N_PFa5pl4ToR3S_AZAu7-12" value="执行&amp;nbsp;InitializingBean&lt;br&gt;afterPropertiesSet 或是自定义的初始化（init）方法" style="shape=document;whiteSpace=wrap;html=1;boundedLbl=1;fontSize=18;rounded=1;arcSize=14;strokeWidth=2;size=0.26666666666666666;" vertex="1" parent="1">
          <mxGeometry x="-157.75" y="540" width="212.25" height="120" as="geometry" />
        </mxCell>
        <mxCell id="N_PFa5pl4ToR3S_AZAu7-17" style="edgeStyle=orthogonalEdgeStyle;rounded=0;orthogonalLoop=1;jettySize=auto;html=1;entryX=0.5;entryY=0;entryDx=0;entryDy=0;entryPerimeter=0;fontSize=18;" edge="1" parent="1" source="N_PFa5pl4ToR3S_AZAu7-14" target="N_PFa5pl4ToR3S_AZAu7-16">
          <mxGeometry relative="1" as="geometry" />
        </mxCell>
        <mxCell id="N_PFa5pl4ToR3S_AZAu7-14" value="applyBeanPostProcessorsAfterInitialization" style="rounded=1;whiteSpace=wrap;html=1;absoluteArcSize=1;arcSize=14;strokeWidth=2;fontSize=18;" vertex="1" parent="1">
          <mxGeometry x="228" y="590" width="371" height="50" as="geometry" />
        </mxCell>
        <mxCell id="N_PFa5pl4ToR3S_AZAu7-16" value="return bean" style="strokeWidth=2;html=1;shape=mxgraph.flowchart.terminator;whiteSpace=wrap;fontSize=18;" vertex="1" parent="1">
          <mxGeometry x="364" y="690" width="100" height="60" as="geometry" />
        </mxCell>
        <mxCell id="N_PFa5pl4ToR3S_AZAu7-18" value="&lt;font style=&quot;font-size: 24px;&quot;&gt;initializeBean&lt;br&gt;执行过程&lt;/font&gt;" style="text;html=1;strokeColor=none;fillColor=none;align=center;verticalAlign=middle;whiteSpace=wrap;rounded=0;fontSize=18;" vertex="1" parent="1">
          <mxGeometry x="112.5" y="120" width="115.5" height="40" as="geometry" />
        </mxCell>
      </root>
    </mxGraphModel>
  </diagram>
</mxfile>
